/* XPM */
static char *result[] = {
/* columns rows colors chars-per-pixel */
"15 15 3 1 ",
"  c black",
". c #FFF200",
"X c white",
/* pixels */
"               ",
"               ",
"               ",
"    ......     ",
"   ........    ",
"   ...XX...    ",
"   ...XX...    ",
"   ...XX...    ",
"   ........    ",
"    ......     ",
"               ",
"               ",
"               ",
"               ",
"               "
};
