/* XPM */
static char *result[] = {
/* columns rows colors chars-per-pixel */
"15 15 3 1 ",
"  c black",
". c #FFC20E",
"X c white",
/* pixels */
"               ",
"               ",
"               ",
"    .......    ",
"    ..XX...    ",
"    ..XX...    ",
"    .......    ",
"    .......    ",
"    .... ..    ",
"    .......    ",
"    .......    ",
"               ",
"               ",
"               ",
"               "
};
