/* XPM */
static char *result[] = {
/* columns rows colors chars-per-pixel */
"15 15 3 1 ",
"  c #B4B4B4",
". c white",
"X c None",
/* pixels */
".......X.X.....",
"X   .   .   . .",
".   .   .   . .",
".   .   .   . .",
".   .   .   . .",
".   .   .   . .",
".   .   .   . .",
".   .   .   . .",
".   .   .   . .",
".   .   .   . .",
".   .   .   . .",
".   .   .   . .",
".   .   .   . .",
".   .   .   . .",
"..............."
};
